<svg xmlns="http://www.w3.org/2000/svg" viewBox="-22364.947 -12776.995 229.598 162.789">
  <defs>
    <style>
      .cls-1, .cls-2 {
        fill: #212121;
        stroke: #212121;
      }

      .cls-1 {
        stroke-width: 0.1px;
      }

      .cls-2 {
        stroke-width: 0.4px;
      }

      .cls-3 {
        fill: #f54c00;
      }
    </style>
  </defs>
  <g id="Group_712" data-name="Group 712" transform="translate(-22364.947 -12776.995)">
    <path id="Path_17" data-name="Path 17" class="cls-1" d="M24.434,8.072V4.236h2.877c1.279,0,2.238.639,2.238,1.918s-.639,1.918-2.557,1.918H24.434ZM19.32,18.621h5.115V11.908h1.918c1.918,0,2.557.639,2.877,2.877l.32,1.6c0,.639.32.959.32,1.279l.32.639h5.434v-.32a9.565,9.565,0,0,1-.959-3.516,2.416,2.416,0,0,0-.32-1.279c-.639-2.557-.959-3.516-2.557-3.836h0a4.235,4.235,0,0,0,2.877-4.156C34.663,2.318,32.746.4,28.59.4H19V18.621Z" transform="translate(41.297 0.439)"/>
    <path id="Path_18" data-name="Path 18" class="cls-1" d="M29.415,8.513c0-2.238.959-3.2,2.238-3.516.959,0,1.918.639,2.238,2.238V8.513c0,2.557-.959,3.516-2.238,3.516s-1.918-.959-2.238-3.2Zm-5.115.32c0,4.475,2.557,7.033,6.713,7.033,4.795,0,7.352-2.557,7.352-7.033,0-4.156-2.557-6.713-6.393-7.033H30.054A6.687,6.687,0,0,0,24.3,8.833Z" transform="translate(52.939 3.515)"/>
    <path id="Path_19" data-name="Path 19" class="cls-1" d="M34.334,1.9l.959,5.434c.32,1.279.32,2.557.639,3.516v1.279h0l.32-2.238c.32-1.6.32-2.877.639-3.836L37.531,1.9h5.115L38.49,14.687c-1.279,3.836-1.918,4.795-4.156,5.115H30.179V15.965h1.279c1.279,0,1.6-.32,1.6-.959a7.683,7.683,0,0,0-.639-2.557L28.9,1.9h5.434Z" transform="translate(63.043 3.734)"/>
    <path id="Path_20" data-name="Path 20" class="cls-1" d="M41.392,11.71l-.32.32a2.882,2.882,0,0,1-1.6.32c-.639,0-1.279-.32-1.279-.959s.32-.959.959-1.279l2.557-.959V11.07ZM38.515,6.275c0-.639.639-1.279,1.918-1.279h.32a1.021,1.021,0,0,1,.959.959c0,.639-.32.639-2.238.959h-.639a1.174,1.174,0,0,0-.959.32C34.359,8.193,33.4,9.152,33.4,11.39c0,2.557,1.918,4.156,4.795,4.156a7.286,7.286,0,0,0,3.516-.959l.639-.32.32,1.279h4.795c0-.32,0-.32-.32-.639a5.44,5.44,0,0,1-.32-2.238V6.275C46.506,3.4,44.588,1.8,40.752,1.8S35,3.079,34.359,5.636l-.32.639Z" transform="translate(72.928 3.515)"/>
    <path id="Path_21" data-name="Path 21" class="cls-1" d="M38.3.4h4.795V18.621H38.3Z" transform="translate(83.692 0.439)"/>
    <path id="Path_22" data-name="Path 22" class="cls-1" d="M36.181,14.215l-5.115.32v-.32c-.32-.959-1.279-1.279-2.877-1.279-2.238,0-3.836,1.6-4.156,4.475v2.557Q24.993,23.8,27.87,23.8a3.968,3.968,0,0,0,3.836-2.557v-.32H27.551V17.092H36.5V27.64H32.665l-.32-1.6-.32.32a6.749,6.749,0,0,1-5.115,1.918c-4.795,0-8.311-3.836-8.311-9.59,0-6.074,3.836-9.59,9.59-9.59,4.156,0,7.033,2.238,7.672,4.795Z" transform="translate(40.418 19.55)"/>
    <path id="Path_23" data-name="Path 23" class="cls-1" d="M29.815,16.372l.32-.639a2.026,2.026,0,0,1,1.918-1.6,1.79,1.79,0,0,1,1.918,1.6v.639Zm8.951,1.279c0-4.795-2.877-7.352-7.352-7.033-4.156.32-6.393,2.877-6.713,7.033,0,4.475,2.557,7.352,7.352,7.033a6.711,6.711,0,0,0,6.393-3.836l.32-.639-4.795-.32-.32.32a1.758,1.758,0,0,1-1.6.959h-.32c-.959-.32-1.6-.639-1.6-1.6V18.93h8.951Z" transform="translate(53.817 22.827)"/>
    <path id="Path_24" data-name="Path 24" class="cls-1" d="M34.395,17.633c0-2.238.959-3.2,2.238-3.516.959,0,1.918.639,2.238,2.238v1.279c0,2.557-.959,3.516-2.238,3.516s-1.918-.959-2.238-3.2Zm-4.795,0c0,4.475,2.557,7.033,6.713,7.033,4.795,0,7.352-2.557,7.352-7.033,0-4.156-2.557-6.713-6.393-7.033H35.354A6.687,6.687,0,0,0,29.6,17.633Z" transform="translate(64.581 22.845)"/>
    <path id="Path_25" data-name="Path 25" class="cls-1" d="M39.92,11.139h4.475v1.6h0l.32-.32c.639-1.279,1.6-1.918,3.516-1.918h.959v4.795h-1.6c-2.557.32-3.2.959-3.2,3.2v6.074H39.6V11.139Z" transform="translate(86.547 22.625)"/>
    <path id="Path_26" data-name="Path 26" class="cls-1" d="M50.992,20.29l-.32.32a2.882,2.882,0,0,1-1.6.32c-.639,0-1.279-.32-1.279-.959s.32-.959.959-1.279l2.557-.959v1.918Zm-2.877-5.434c0-.639.639-1.279,1.918-1.279h.32a1.171,1.171,0,0,1,1.279,1.279c0,.639-.32.639-2.238.959h-.639a1.174,1.174,0,0,0-.959.32C43.959,16.774,43,18.052,43,20.29c0,2.557,1.918,4.156,4.795,4.156a7.286,7.286,0,0,0,3.516-.959l.639-.32.32,1.279h4.795c0-.32,0-.32-.32-.639a5.44,5.44,0,0,1-.32-2.238V15.175c-.32-2.877-2.238-4.475-6.074-4.475s-5.754,1.279-6.393,3.836l-.32.32Z" transform="translate(94.016 23.065)"/>
    <path id="Path_27" data-name="Path 27" class="cls-1" d="M52.595,17.633c0-2.557.639-3.836,2.238-3.836,1.279,0,2.238.959,2.238,3.516v.959c0,1.918-.959,3.2-2.238,3.2s-1.918-.959-1.918-2.877A1.174,1.174,0,0,1,52.595,17.633ZM48.12,28.821h4.795V23.387l.32.32a4.772,4.772,0,0,0,3.2.959c3.2,0,5.754-2.557,5.434-7.033,0-4.475-2.557-6.713-5.434-7.033a4.58,4.58,0,0,0-3.516,1.6l-.32.32h0V11.239H47.8V28.821Z" transform="translate(104.56 22.845)"/>
    <path id="Path_28" data-name="Path 28" class="cls-1" d="M53,9.2h4.795v6.393l.639-.639a3.9,3.9,0,0,1,2.877-1.279c2.877,0,4.156,1.6,4.475,4.795v8.951H60.992V19.11a1.462,1.462,0,0,0-1.279-1.6c-.959,0-1.6.639-1.6,2.557v7.352H53Z" transform="translate(115.982 19.77)"/>
    <path id="Path_29" data-name="Path 29" class="cls-1" d="M74.28,16.051H69.485v-.32q-.48-1.918-1.918-1.918c-1.279,0-2.238.959-2.557,3.2v.959c.32,1.918.959,2.877,2.238,2.877s2.238-.639,2.238-1.6v-.32l4.795.32-.32.959c-.639,2.877-3.2,4.795-6.713,4.475-4.156,0-6.713-2.557-7.033-6.393-.32-5.115,2.877-7.992,7.672-7.672,3.516.32,5.754,1.918,6.074,4.795Z" transform="translate(131.783 22.828)"/>
    <path id="Path_30" data-name="Path 30" class="cls-1" d="M73.072,20.29l-.32.32a2.882,2.882,0,0,1-1.6.32c-.639,0-1.279-.32-1.279-.959s.32-.959.959-1.279l2.557-.959v1.918Zm-2.877-5.434c0-.639.639-1.279,1.918-1.279h.32a1.171,1.171,0,0,1,1.279,1.279c0,.639-.32.639-2.238.959h-.639a1.174,1.174,0,0,0-.959.32c-3.516.959-4.475,1.918-4.475,4.156,0,2.557,1.918,4.156,4.795,4.156a7.286,7.286,0,0,0,3.516-.959l.639-.32.32,1.279h4.795c0-.32,0-.32-.32-.639a5.44,5.44,0,0,1-.32-2.238V15.175c-.32-2.877-2.238-4.475-6.074-4.475S67,11.979,66.359,14.536l-.959.32Z" transform="translate(143.22 23.065)"/>
    <path id="Path_31" data-name="Path 31" class="cls-1" d="M70.3,9.2h4.795V27.421H70.3Z" transform="translate(153.984 19.77)"/>
    <path id="Path_32" data-name="Path 32" class="cls-1" d="M23.375,30.887v.32c.32,1.6,1.279,2.238,3.2,2.238,2.238,0,3.2-.639,3.2-1.6,0-.32,0-.32-.32-.639a3.348,3.348,0,0,0-1.918-.959l-3.516-.959c-.32,0-.959-.32-1.279-.32a4.8,4.8,0,0,1-3.516-4.795c0-3.516,2.557-6.074,7.672-6.074,4.475,0,7.033,1.918,7.672,4.795v.639l-4.795.32v-.32a2.9,2.9,0,0,0-2.877-1.918c-1.6,0-2.557.639-2.557,1.6,0,.639.32.959,1.918,1.279l1.918.32c.32,0,.639.32,1.279.32,4.156.959,5.434,2.557,5.754,5.434,0,3.2-2.238,5.754-6.713,6.074H27.211c-5.115,0-7.672-1.918-8.311-5.754v-.639Z" transform="translate(41.077 39.32)"/>
    <path id="Path_33" data-name="Path 33" class="cls-1" d="M29.195,26.733c0-2.238.959-3.2,2.238-3.516.959,0,1.918.639,2.238,2.238v1.279c0,2.557-.959,3.516-2.238,3.516s-1.918-.959-2.238-3.2Zm-4.795,0c0,4.475,2.557,7.033,6.713,7.033,4.795,0,7.352-2.557,7.352-7.033,0-4.156-2.557-6.713-6.393-7.033H30.154C26.318,20.659,24.4,22.9,24.4,26.733Z" transform="translate(53.158 42.834)"/>
    <path id="Path_34" data-name="Path 34" class="cls-1" d="M43.28,25.251H38.485v-.32q-.48-1.918-1.918-1.918c-1.279,0-2.238.959-2.557,3.2v.959c.32,1.918.959,2.877,2.238,2.877s2.238-.639,2.238-1.6v-.32l4.795.32-.32.959c-.639,2.877-3.2,4.795-6.713,4.475-4.156,0-7.033-2.557-7.033-6.393-.32-5.115,2.877-7.992,7.672-7.672,3.516.32,5.754,1.918,6.074,4.795Z" transform="translate(63.687 43.037)"/>
    <path id="Path_35" data-name="Path 35" class="cls-1" d="M41.195,25.253l.32-.639a2.026,2.026,0,0,1,1.918-1.6,1.79,1.79,0,0,1,1.918,1.6v.639Zm9.27,1.6c0-4.795-2.877-7.352-7.352-7.033-4.156.32-6.393,2.877-6.713,7.033,0,4.475,2.557,7.352,7.352,7.033a6.711,6.711,0,0,0,6.393-3.836l.32-.639-4.795-.32-.32.32a1.758,1.758,0,0,1-1.6.959h-.32q-1.918-.479-1.918-1.918V27.81h8.951Z" transform="translate(79.518 43.036)"/>
    <path id="Path_36" data-name="Path 36" class="cls-1" d="M41.32,22.756h1.918V18.6h4.475v4.156h2.238v3.2H47.713v4.795c0,.959.32,1.279,1.6,1.279h.959v3.836H48.033c-3.516,0-4.795-1.279-5.115-3.836V25.313H41V22.756Z" transform="translate(89.623 40.418)"/>
    <path id="Path_37" data-name="Path 37" class="cls-1" d="M49.715,19.9l.959,5.434c.32,1.279.32,2.557.639,3.516v1.279h0l.32-2.238c.32-1.6.32-2.877.639-3.836l.639-4.156h5.115L53.87,32.687c-1.279,3.836-1.918,4.795-4.156,5.115H45.879V33.965h1.279c1.279,0,1.6-.32,1.6-.959a7.683,7.683,0,0,0-.639-2.557L44.6,19.9h5.115Z" transform="translate(97.53 43.274)"/>
    <g id="Group_196" data-name="Group 196" transform="translate(184.646 29.289)">
      <g id="Group_195" data-name="Group 195" transform="translate(0 4.475)">
        <path id="Path_38" data-name="Path 38" class="cls-1" d="M57.9,10.7h4.795V23.806H57.9Z" transform="translate(-57.9 -10.7)"/>
      </g>
      <path id="Path_39" data-name="Path 39" class="cls-1" d="M57.9,9.3h4.795v2.877H57.9Z" transform="translate(-57.9 -9.3)"/>
    </g>
    <path id="Path_40" data-name="Path 40" class="cls-1" d="M39.295,16.354c0-1.6.959-2.557,1.918-2.557,1.279,0,2.238.959,2.238,2.877s-.959,2.877-2.238,2.877S38.975,18.592,39.295,16.354Zm3.836-4.475a3.706,3.706,0,0,0-3.2-1.279H38.656c-1.918.32-3.836,2.557-4.156,5.115v.959c0,3.516,2.238,6.074,5.434,6.074a3.706,3.706,0,0,0,3.2-1.279l.32-.32h0v1.918c0,1.6-.639,2.557-2.238,2.557a1.462,1.462,0,0,1-1.6-1.279v-.32H34.82v.32c.32,1.918,1.6,3.2,4.156,3.836.959,0,1.918.32,2.557.32h.959c3.516-.32,5.115-1.6,5.434-4.795V10.92H43.451V12.2h0Z" transform="translate(75.344 22.845)"/>
    <g id="Group_198" data-name="Group 198" transform="translate(108.885 58.379)">
      <g id="Group_197" data-name="Group 197" transform="translate(0 4.795)">
        <path id="Path_41" data-name="Path 41" class="cls-1" d="M34.2,19.9h4.795V33.006H34.2Z" transform="translate(-34.2 -19.9)"/>
      </g>
      <path id="Path_42" data-name="Path 42" class="cls-1" d="M34.3,18.4h4.795v2.877H34.3Z" transform="translate(-33.98 -18.4)"/>
    </g>
    <rect id="Rectangle_4137" data-name="Rectangle 4137" class="cls-2" width="229.199" height="1.279" transform="translate(0.2 119.434)"/>
    <g id="Group_199" data-name="Group 199" transform="translate(59.977 90.025)">
      <path id="Path_43" data-name="Path 43" class="cls-2" d="M21.138,29.82l2.238,7.352v.959h0l.639-2.557c.639-1.918.959-3.836,1.6-5.754h1.918l1.918,7.033.32.959v.32h0l.639-2.877c.639-1.918.959-3.836,1.6-5.754h2.238L30.408,40.688H28.49l-1.918-6.393c0-.32-.32-.959-.32-1.279V32.7h0v.639l-.32.959-1.6,6.393H22.416L18.9,29.82Z" transform="translate(-18.9 -25.664)"/>
      <path id="Path_44" data-name="Path 44" class="cls-2" d="M24.5,28.3h1.918v2.238H24.5Zm0,4.156h1.918V43.324H24.5Z" transform="translate(-6.599 -28.3)"/>
      <path id="Path_45" data-name="Path 45" class="cls-2" d="M25.9,31.8h1.918V28.6h1.918v3.2h1.918v1.6H29.736v6.393c0,.959.32,1.279.959,1.279h.959v1.6H30.375c-1.6,0-2.557-.639-2.557-1.918V33.395H25.9V31.8Z" transform="translate(-3.524 -27.641)"/>
      <path id="Path_46" data-name="Path 46" class="cls-2" d="M28.6,28.3h1.918v5.115h0l.32-.32a4.261,4.261,0,0,1,3.2-1.279,3.224,3.224,0,0,1,3.516,2.877v8.631H35.633V36.292c0-1.6-.639-2.557-1.918-2.557a2.8,2.8,0,0,0-2.877,2.557v7.033H28.92V28.3Z" transform="translate(2.407 -28.3)"/>
      <path id="Path_47" data-name="Path 47" class="cls-2" d="M33.7,28.9h1.918V42.326H33.7Z" transform="translate(13.61 -26.982)"/>
      <path id="Path_48" data-name="Path 48" class="cls-2" d="M37.2,33.895V30.059h4.156c.959.32,1.6.639,1.6,1.918v.32a1.51,1.51,0,0,1-1.6,1.6H37.2Zm-1.6,7.992h6.713a3.485,3.485,0,0,0,3.2-3.516,3.176,3.176,0,0,0-2.238-3.2h0q1.918-.48,1.918-2.877a2.867,2.867,0,0,0-3.2-3.2H35.6Zm1.6-1.6V35.493h3.2q2.877,0,2.877,1.918v.639c0,1.279-.959,1.918-2.557,2.238H37.2Z" transform="translate(17.784 -26.543)"/>
      <path id="Path_49" data-name="Path 49" class="cls-2" d="M51.647,33.375H49.729v-.32c-.32-1.6-1.6-2.557-3.516-2.877-2.557-.32-4.475,1.279-4.795,4.475v.639c0,3.516,1.918,5.434,4.475,5.434h.959a3.752,3.752,0,0,0,2.877-3.2v-.639H45.574v-1.6h5.754v7.033h-1.6v-1.6h0v.32a4.789,4.789,0,0,1-3.836,1.6c-3.836,0-6.393-2.557-6.393-7.033S42.057,28.9,45.893,28.9c2.238,0,3.836.639,4.795,2.238.32.639.639.959.639,1.6Z" transform="translate(26.351 -26.982)"/>
    </g>
    <rect id="Rectangle_4138" data-name="Rectangle 4138" class="cls-2" width="1.279" height="162.389" transform="translate(44.314 0.2)"/>
    <circle id="Ellipse_177" data-name="Ellipse 177" class="cls-3" cx="10.229" cy="10.229" r="10.229" transform="translate(34.404 109.525)"/>
  </g>
</svg>
